# xmcd
#
# Track frame offsets: 
#        150
#        37028
#        74529
#        118620
#        148469
#
# Disc length: 2504 seconds
#
# Revision: 0
# Processed by: cddbd v1.5.2PL0 Copyright (c) Steve Scherf et al.
# Submitted via: ExactAudioCopy v1.0b4
#
DISCID=5009c605
DTITLE=John Ginty - Bad News Travels (Live)  disc 2
DYEAR=2014
DGENRE=Blues
TTITLE0=Damage Control
TTITLE1=The Quirk
TTITLE2=Off The Cuff
TTITLE3=Mirrors
TTITLE4=Trinity
EXTD=
EXTT0=
EXTT1=
EXTT2=
EXTT3=
EXTT4=
PLAYORDER=
